<svg width="114" height="114" viewBox="0 0 114 114" fill="none" xmlns="http://www.w3.org/2000/svg">
<path d="M22.8027 26.6004L33.2527 19.9504C33.2527 19.9504 43.7027 17.1004 44.6527 32.3004C44.6527 32.3004 51.7777 66.9754 55.1027 69.3504C58.4277 71.7254 65.0777 62.2254 65.0777 62.2254C65.0777 62.2254 86.9277 30.4004 59.3777 33.7254C59.3777 33.7254 72.2027 16.1504 85.0277 18.5254C85.0277 18.5254 100.703 21.8504 94.0527 44.1754C94.0527 44.1754 86.4527 70.3004 62.7027 89.7754C62.7027 89.7754 45.6027 106.875 38.4777 86.9254L24.2277 42.7504C24.2277 42.7504 23.2777 37.5254 18.0527 38.0004" stroke="#FAFAFA" stroke-width="4" stroke-linecap="round" stroke-linejoin="round"/>
</svg>
