<?xml version="1.0" encoding="utf-8"?>
<!-- Generator: Adobe Illustrator 24.2.0, SVG Export Plug-In . SVG Version: 6.00 Build 0)  -->
<svg version="1.1" xmlns="http://www.w3.org/2000/svg" xmlns:xlink="http://www.w3.org/1999/xlink" x="0px" y="0px"
	 viewBox="0 0 122 55" style="enable-background:new 0 0 122 55;" xml:space="preserve">
<style type="text/css">
	.st0{fill:#fafafa;}
	.st1{fill:none;stroke:#fafafa;;stroke-miterlimit:10;}
</style>
<g id="Calque_1">
	<g id="XMLID_1_">
		<g>
			<path class="st0" d="M114.7,8.1c7.5,7.8,6.6,21.9,6.6,21.9c-0.6,17.3-12.2,21.5-12.2,21.5c-11.9,6.3-24,0.2-24,0.2l0.9-3.5
				c14.7,7.6,25-1.5,25-1.5c9-8.2,6.2-24.1,6.2-24.1c-2.1-13-10.9-16.3-10.9-16.3c-8.4-4.6-17.2-0.7-17.2-0.7
				c8.5,5.9,4.8,16.9,4.8,16.9c-2.3,8.8-15.5,9.9-15.5,9.9H64.9V55h-3.8l-0.3-22.6H48.6l-11.7,22l-13.4-0.3
				C9.4,54.4,4.2,40.9,4.2,40.9C-0.4,28.6,3,18.1,3,18.1S4.7,7.5,16.5,2.9c11.9-4.6,21.7,1.3,21.7,1.3l-1,3.3
				c-5-3.3-12.6-2.8-12.6-2.8c-9.4,0.6-14.2,6.8-14.2,6.8c-6.8,9.8-4.8,19.6-4.8,19.6c1.8,12,9.1,16.4,9.1,16.4
				c4.3,3.8,19.2,2.8,19.2,2.8L59.5,2.8C72.3,2.1,84.4,4,84.4,4c7.1-3.6,15.6-3,15.6-3C109.6,1.6,114.7,8.1,114.7,8.1z M90.3,15.8
				c0.3-5.5-5.1-7.7-5.1-7.7c-2.6-1.8-8.8-1.8-8.9-1.8L64.5,6.3V29h12.9c3.9,0.1,5.6-0.6,5.6-0.6c2.5-0.3,5.2-3.2,5.2-3.2
				C90.7,23,90.3,15.8,90.3,15.8z M60.8,29V7.7L50.1,29H60.8z"/>
		</g>
		<g>
			<path class="st1" d="M38.3,4.3c0,0-9.9-5.9-21.7-1.3C4.7,7.5,3,18.1,3,18.1s-3.4,10.5,1.2,22.8c0,0,5.2,13.5,19.3,13.3l13.4,0.3
				l11.7-22h12.2L61.1,55h3.8V32.4h13.5c0,0,13.2-1.1,15.5-9.9c0,0,3.7-10.9-4.8-16.9c0,0,8.8-4,17.2,0.7c0,0,8.7,3.4,10.9,16.3
				c0,0,2.8,15.8-6.2,24.1c0,0-10.4,9-25,1.5l-0.9,3.5c0,0,12.1,6.2,24-0.2c0,0,11.7-4.2,12.2-21.5c0,0,0.9-14.1-6.6-21.9
				c0,0-5.1-6.5-14.8-7.1c0,0-8.5-0.6-15.6,3c0,0-12.1-1.9-24.9-1.2L34.1,50.4c0,0-15,1-19.2-2.8c0,0-7.3-4.4-9.1-16.4
				c0,0-2-9.8,4.8-19.6c0,0,4.8-6.2,14.2-6.8c0,0,7.6-0.4,12.6,2.8L38.3,4.3z"/>
			<path class="st1" d="M64.5,29V6.3l11.8,0.1c0.1,0,6.3,0,8.9,1.8c0,0,5.4,2.2,5.1,7.7c0,0,0.4,7.1-2,9.3c0,0-2.8,3-5.2,3.2
				c0,0-1.7,0.7-5.6,0.6H64.5z"/>
			<polygon class="st1" points="60.8,7.7 50.1,29 60.8,29 			"/>
		</g>
	</g>
</g>
<g id="Calque_2">
</g>
</svg>
