<?xml version="1.0" encoding="utf-8"?>
<!-- Generator: Adobe Illustrator 24.2.0, SVG Export Plug-In . SVG Version: 6.00 Build 0)  -->
<svg version="1.1" xmlns="http://www.w3.org/2000/svg" xmlns:xlink="http://www.w3.org/1999/xlink" x="0px" y="0px"
	 viewBox="0 0 24 24" style="enable-background:new 0 0 24 24;" xml:space="preserve">
<style type="text/css">
	.st0{display:none;}
	.st1{fill:none;stroke:#D2BE88;stroke-linecap:round;stroke-linejoin:round;}
</style>
<g id="Calque_2" class="st0">
	
		<image style="display:inline;overflow:visible;" width="900" height="512" xlink:href="../../../png-clipart-ticket-computer-icons-others-logo-black.png"  transform="matrix(3.000000e-02 0 0 3.000000e-02 -1.5 4.32)">
	</image>
</g>
<g id="Calque_1">
	<path class="st1" d="M5.1,13.2l8.9-8.9c0,0,0.4-0.5,1.7,1.3c0,0-0.7,1.3,0.2,2.2c0,0,0.6,1,2.3,0.3l1.2,1c0,0,0.8,0.6-0.6,1.6
		l-8.6,8.6c0,0-0.7,0.8-1.4-0.3l-0.8-0.9c0,0,1-1.1,0-2.2"/>
	<line class="st1" x1="13" y1="7.3" x2="16.7" y2="11"/>
</g>
</svg>